<svg width="25" height="25" viewBox="0 0 25 25" fill="none" xmlns="http://www.w3.org/2000/svg">
<path d="M20.8542 15.8544L21.7821 16.2273C21.9314 15.8555 21.8446 15.4305 21.5613 15.1473C21.278 14.864 20.853 14.7771 20.4813 14.9265L20.8542 15.8544ZM9.14581 4.146L10.0737 4.51888C10.2231 4.14716 10.1362 3.72217 9.85292 3.43889C9.56964 3.15561 9.14465 3.06874 8.77293 3.21812L9.14581 4.146ZM20.4813 14.9265C19.5613 15.2962 18.5557 15.5002 17.5 15.5002V17.5002C18.8155 17.5002 20.0739 17.2457 21.2271 16.7822L20.4813 14.9265ZM17.5 15.5002C13.0817 15.5002 9.5 11.9185 9.5 7.50018H7.5C7.5 13.023 11.9772 17.5002 17.5 17.5002V15.5002ZM9.5 7.50018C9.5 6.4445 9.70396 5.43891 10.0737 4.51888L8.21794 3.77311C7.75452 4.92625 7.5 6.18472 7.5 7.50018H9.5ZM4.5 12.5002C4.5 9.13732 6.57526 6.25676 9.5187 5.07387L8.77293 3.21812C5.09771 4.69508 2.5 8.29306 2.5 12.5002H4.5ZM12.5 20.5002C8.08172 20.5002 4.5 16.9185 4.5 12.5002H2.5C2.5 18.023 6.97715 22.5002 12.5 22.5002V20.5002ZM19.9263 15.4815C18.7434 18.4249 15.8629 20.5002 12.5 20.5002V22.5002C16.7071 22.5002 20.3051 19.9025 21.7821 16.2273L19.9263 15.4815Z" fill="white"/>
</svg>
